<svg xmlns="http://www.w3.org/2000/svg" xmlns:xlink="http://www.w3.org/1999/xlink" width="500" zoomAndPan="magnify" viewBox="0 0 375 374.999991" height="500" preserveAspectRatio="xMidYMid meet" version="1.0"><defs><g/><clipPath id="c1b0d2b8de"><path d="M 86 15.5625 L 257 15.5625 L 257 180 L 86 180 Z M 86 15.5625 " clip-rule="nonzero"/></clipPath><clipPath id="b4b90ff8e2"><path d="M 34.066406 328 L 340.816406 328 L 340.816406 374.8125 L 34.066406 374.8125 Z M 34.066406 328 " clip-rule="nonzero"/></clipPath><clipPath id="6018d99e1e"><path d="M 159 21 L 220 21 L 220 67 L 159 67 Z M 159 21 " clip-rule="nonzero"/></clipPath><clipPath id="f26bcbe0de"><path d="M 163.808594 6.722656 L 227.433594 26.917969 L 211.324219 77.671875 L 147.699219 57.476562 Z M 163.808594 6.722656 " clip-rule="nonzero"/></clipPath><clipPath id="7b21a4e364"><path d="M 163.808594 6.722656 L 227.433594 26.917969 L 211.324219 77.671875 L 147.699219 57.476562 Z M 163.808594 6.722656 " clip-rule="nonzero"/></clipPath></defs><path fill="#492818" d="M 218.039062 72.183594 C 218.039062 55.847656 204.378906 42.601562 187.527344 42.601562 C 170.679688 42.601562 157.019531 55.847656 157.019531 72.183594 C 157.019531 88.523438 170.679688 101.765625 187.527344 101.765625 C 204.378906 101.765625 218.039062 88.523438 218.039062 72.183594 Z M 170.25 83.628906 L 204.804688 83.628906 C 201.226562 89.429688 194.828125 93.316406 187.527344 93.316406 C 180.226562 93.316406 173.828125 89.429688 170.25 83.628906 Z M 170.25 83.628906 " fill-opacity="1" fill-rule="nonzero"/><g clip-path="url(#c1b0d2b8de)"><path fill="#492818" d="M 224.203125 179.453125 L 224.203125 136.378906 C 228.570312 142.414062 233.851562 154.703125 235.753906 179.453125 L 256.824219 179.453125 C 254.703125 149.683594 247.710938 129.058594 235.90625 117.90625 C 226.824219 109.324219 217.953125 109.171875 215.199219 109.367188 C 214.714844 109.304688 214.226562 109.257812 213.722656 109.257812 L 201.617188 109.257812 C 203.378906 119.273438 207.792969 149.285156 198.597656 155.222656 C 198.039062 155.582031 197.527344 155.914062 197.019531 156.238281 L 192.824219 125.324219 C 191.121094 125.960938 189.328125 126.296875 187.535156 126.296875 L 187.527344 126.296875 C 185.730469 126.296875 183.9375 125.960938 182.230469 125.324219 L 178.035156 156.238281 C 177.53125 155.914062 177.015625 155.582031 176.457031 155.222656 C 167.265625 149.285156 171.675781 119.273438 173.4375 109.257812 L 161.335938 109.257812 C 161.253906 109.257812 161.175781 109.265625 161.097656 109.269531 L 119.492188 88.644531 L 107.382812 43.683594 L 101.386719 18.996094 C 100.871094 16.875 98.675781 15.5625 96.496094 16.0625 C 94.308594 16.5625 92.953125 18.683594 93.46875 20.804688 L 98.5 41.523438 C 92.367188 42.460938 85.488281 45.652344 86.378906 48.953125 L 99.726562 98.519531 C 100.507812 101.421875 102.53125 103.863281 105.285156 105.226562 L 150.851562 127.816406 L 150.851562 179.453125 Z M 224.203125 179.453125 " fill-opacity="1" fill-rule="nonzero"/></g><path fill="#492818" d="M 195.019531 119.171875 L 192.523438 109.3125 L 182.53125 109.3125 L 180.035156 119.171875 L 180.417969 119.777344 C 182.476562 121.492188 184.992188 122.347656 187.527344 122.351562 C 190.0625 122.347656 192.582031 121.488281 194.640625 119.773438 Z M 195.019531 119.171875 " fill-opacity="1" fill-rule="nonzero"/><path fill="#492818" d="M 120.140625 259.652344 C 126.125 254.816406 133.734375 251.910156 142.007812 251.910156 C 154.480469 251.910156 165.4375 258.503906 171.59375 268.382812 C 176.375 265.914062 181.789062 264.507812 187.53125 264.507812 C 193.269531 264.507812 198.683594 265.914062 203.464844 268.382812 C 209.621094 258.503906 220.578125 251.910156 233.050781 251.910156 C 241.324219 251.910156 248.929688 254.8125 254.914062 259.648438 L 258.609375 199.832031 L 269.65625 199.832031 L 269.65625 184.710938 L 105.398438 184.710938 L 105.398438 199.832031 L 116.449219 199.832031 Z M 120.140625 259.652344 " fill-opacity="1" fill-rule="nonzero"/><path fill="#492818" d="M 128.507812 313.066406 C 132.558594 315.144531 137.144531 316.328125 142.007812 316.328125 C 146.875 316.328125 151.460938 315.144531 155.507812 313.066406 C 153.699219 308.851562 152.691406 304.214844 152.691406 299.347656 C 152.691406 287.75 158.390625 277.46875 167.128906 271.128906 C 161.90625 262.746094 152.613281 257.167969 142.007812 257.167969 C 131.402344 257.167969 122.109375 262.75 116.886719 271.132812 C 125.625 277.46875 131.324219 287.75 131.324219 299.347656 C 131.328125 304.214844 130.320312 308.851562 128.507812 313.066406 Z M 128.507812 313.066406 " fill-opacity="1" fill-rule="nonzero"/><path fill="#492818" d="M 233.050781 257.167969 C 222.449219 257.167969 213.152344 262.75 207.929688 271.132812 C 216.671875 277.46875 222.371094 287.753906 222.371094 299.347656 C 222.371094 304.21875 221.363281 308.855469 219.550781 313.066406 C 223.601562 315.148438 228.183594 316.328125 233.050781 316.328125 C 237.917969 316.328125 242.503906 315.148438 246.550781 313.066406 C 244.738281 308.855469 243.734375 304.21875 243.734375 299.347656 C 243.734375 287.75 249.433594 277.46875 258.171875 271.132812 C 252.949219 262.75 243.65625 257.167969 233.050781 257.167969 Z M 233.050781 257.167969 " fill-opacity="1" fill-rule="nonzero"/><path fill="#492818" d="M 78.511719 322.835938 L 114.464844 322.835938 C 121.515625 317.429688 126.066406 308.921875 126.066406 299.347656 C 126.066406 283.007812 112.828125 269.765625 96.488281 269.765625 C 80.152344 269.765625 66.90625 283.007812 66.90625 299.347656 C 66.90625 308.921875 71.457031 317.429688 78.511719 322.835938 Z M 78.511719 322.835938 " fill-opacity="1" fill-rule="nonzero"/><path fill="#492818" d="M 217.109375 299.347656 C 217.109375 283.007812 203.867188 269.765625 187.527344 269.765625 C 171.191406 269.765625 157.949219 283.007812 157.949219 299.347656 C 157.949219 308.921875 162.5 317.429688 169.554688 322.835938 L 205.503906 322.835938 C 212.558594 317.429688 217.109375 308.921875 217.109375 299.347656 Z M 217.109375 299.347656 " fill-opacity="1" fill-rule="nonzero"/><path fill="#492818" d="M 248.992188 299.347656 C 248.992188 308.921875 253.542969 317.429688 260.597656 322.835938 L 296.546875 322.835938 C 303.601562 317.429688 308.152344 308.921875 308.152344 299.347656 C 308.152344 283.007812 294.910156 269.765625 278.570312 269.765625 C 262.234375 269.765625 248.992188 283.007812 248.992188 299.347656 Z M 248.992188 299.347656 " fill-opacity="1" fill-rule="nonzero"/><g clip-path="url(#b4b90ff8e2)"><path fill="#492818" d="M 322.890625 336.335938 C 315.492188 329.386719 308.261719 328.203125 304.570312 328.125 C 304.371094 328.113281 304.171875 328.09375 303.96875 328.09375 L 253.175781 328.09375 C 252.957031 328.09375 252.746094 328.113281 252.535156 328.125 C 248.835938 328.210938 241.628906 329.40625 234.253906 336.335938 C 233.84375 336.71875 233.445312 337.125 233.050781 337.535156 C 232.652344 337.125 232.253906 336.71875 231.847656 336.335938 C 224.449219 329.386719 217.222656 328.203125 213.527344 328.125 C 213.328125 328.113281 213.128906 328.09375 212.925781 328.09375 L 162.132812 328.09375 C 161.914062 328.09375 161.707031 328.113281 161.492188 328.125 C 157.792969 328.210938 150.585938 329.40625 143.210938 336.335938 C 142.800781 336.71875 142.402344 337.125 142.007812 337.535156 C 141.609375 337.125 141.214844 336.71875 140.804688 336.335938 C 133.40625 329.386719 126.179688 328.203125 122.488281 328.125 C 122.285156 328.113281 122.085938 328.09375 121.882812 328.09375 L 71.089844 328.09375 C 70.875 328.09375 70.664062 328.113281 70.449219 328.125 C 66.75 328.210938 59.546875 329.402344 52.167969 336.335938 C 43.746094 344.25 37.796875 357.183594 34.335938 375 L 55.863281 375 C 57.34375 368.546875 59.105469 363.558594 60.929688 359.765625 L 60.929688 375 L 314.128906 375 L 314.128906 359.769531 C 315.953125 363.5625 317.714844 368.546875 319.195312 375 L 340.71875 375 C 337.261719 357.183594 331.3125 344.25 322.890625 336.335938 Z M 322.890625 336.335938 " fill-opacity="1" fill-rule="nonzero"/></g><g fill="#492818" fill-opacity="1"><g transform="translate(214.700791, 235.717559)"><g><path d="M 5.828125 -1.375 L 6.234375 -0.453125 C 6.035156 -0.253906 5.769531 -0.101562 5.4375 0 C 5.101562 0.113281 4.742188 0.171875 4.359375 0.171875 C 2.710938 0.171875 1.890625 -0.664062 1.890625 -2.34375 L 1.890625 -7.578125 L 0.390625 -7.578125 L 0.390625 -8.625 L 1.890625 -8.625 L 1.890625 -10.453125 L 3.171875 -10.65625 L 3.171875 -8.625 L 5.9375 -8.625 L 5.9375 -7.578125 L 3.171875 -7.578125 L 3.171875 -2.46875 C 3.171875 -1.476562 3.597656 -0.984375 4.453125 -0.984375 C 4.921875 -0.984375 5.328125 -1.113281 5.671875 -1.375 Z M 5.828125 -1.375 "/></g></g></g><g clip-path="url(#6018d99e1e)"><g clip-path="url(#f26bcbe0de)"><g clip-path="url(#7b21a4e364)"><path fill="#492818" d="M 203.269531 39.484375 L 215.398438 25.140625 C 216.753906 23.542969 219.347656 24.632812 219.15625 26.722656 L 215.804688 62.472656 C 215.710938 63.414062 215.019531 64.195312 214.089844 64.371094 C 208.097656 65.507812 185.765625 68.925781 161.945312 62 C 161.066406 61.75 160.449219 60.945312 160.402344 60.042969 L 159.078125 23.988281 C 158.988281 21.917969 161.585938 20.9375 162.878906 22.554688 L 175.289062 38.152344 C 176.191406 39.285156 177.9375 39.199219 178.738281 37.996094 L 188.746094 22.816406 C 189.675781 21.417969 191.773438 21.582031 192.46875 23.109375 L 199.667969 38.992188 C 200.351562 40.417969 202.265625 40.675781 203.269531 39.484375 Z M 203.269531 39.484375 " fill-opacity="1" fill-rule="nonzero"/></g></g></g></svg>