<svg xmlns="http://www.w3.org/2000/svg" xmlns:xlink="http://www.w3.org/1999/xlink" width="500" zoomAndPan="magnify" viewBox="0 0 375 374.999991" height="500" preserveAspectRatio="xMidYMid meet" version="1.0"><defs><clipPath id="17594df93f"><path d="M 177 37.5 L 198 37.5 L 198 130 L 177 130 Z M 177 37.5 " clip-rule="nonzero"/></clipPath></defs><path fill="#492818" d="M 370.292969 315.179688 L 4.707031 315.179688 C 1.917969 315.179688 0.0546875 317.039062 0.0546875 319.828125 L 0.0546875 333.316406 C 0.0546875 335.644531 2.382812 337.96875 4.707031 337.96875 L 370.292969 337.96875 C 373.082031 337.96875 374.945312 336.109375 374.945312 333.316406 L 374.945312 319.828125 C 374.945312 317.039062 373.082031 315.179688 370.292969 315.179688 Z M 370.292969 315.179688 " fill-opacity="1" fill-rule="nonzero"/><path fill="#492818" d="M 358.664062 310.0625 C 359.128906 307.269531 359.128906 304.480469 359.128906 301.6875 C 359.128906 234.710938 293.546875 178.898438 208.894531 170.988281 L 208.894531 163.082031 C 208.894531 160.757812 207.5 158.433594 205.640625 158.433594 L 170.289062 158.433594 C 168.429688 158.433594 167.035156 160.292969 167.035156 163.082031 L 167.035156 170.988281 C 82.382812 178.898438 16.800781 234.246094 16.800781 301.6875 C 16.800781 304.480469 16.800781 307.269531 17.265625 310.0625 Z M 34.941406 270.527344 C 37.730469 261.6875 42.382812 253.316406 47.964844 245.410156 C 57.730469 232.386719 70.753906 220.292969 87.964844 210.058594 C 102.847656 201.222656 117.730469 195.175781 127.5 191.921875 C 138.195312 188.199219 145.175781 186.804688 145.640625 186.804688 C 146.570312 186.804688 147.5 187.269531 147.964844 188.199219 C 147.964844 189.128906 147.5 190.058594 146.570312 190.523438 C 146.570312 190.523438 139.128906 191.921875 128.894531 195.640625 C 119.128906 198.898438 104.707031 204.945312 89.824219 213.78125 C 52.613281 236.105469 33.542969 265.875 33.542969 301.6875 C 33.542969 302.621094 32.613281 303.550781 31.683594 303.550781 C 30.753906 303.550781 29.824219 302.621094 29.824219 301.6875 C 30.289062 290.527344 31.683594 280.292969 34.941406 270.527344 Z M 34.941406 270.527344 " fill-opacity="1" fill-rule="nonzero"/><path fill="#492818" d="M 154.941406 108.199219 C 155.40625 108.664062 155.871094 109.59375 155.871094 110.058594 C 160.523438 117.964844 157.265625 124.011719 154.011719 130.058594 C 152.152344 133.316406 149.824219 137.035156 149.824219 140.757812 C 149.359375 144.941406 151.21875 149.128906 155.40625 153.78125 L 157.265625 151.921875 C 153.546875 148.199219 152.152344 144.941406 152.617188 141.222656 C 153.082031 137.964844 154.476562 134.710938 156.335938 131.453125 C 160.058594 124.941406 163.777344 117.964844 158.199219 108.664062 C 157.730469 108.199219 157.265625 107.269531 157.265625 106.804688 C 153.082031 99.359375 148.894531 92.847656 151.6875 84.011719 C 153.546875 79.359375 157.730469 75.175781 161.917969 70.988281 C 164.242188 68.664062 167.035156 66.335938 168.894531 63.546875 L 166.570312 62.152344 C 164.710938 64.476562 162.382812 66.800781 160.058594 69.128906 C 155.871094 73.3125 151.21875 77.5 149.359375 83.082031 C 147.964844 87.269531 147.964844 91.917969 149.359375 96.570312 C 150.753906 100.757812 153.082031 104.476562 154.941406 108.199219 Z M 154.941406 108.199219 " fill-opacity="1" fill-rule="nonzero"/><path fill="#492818" d="M 212.617188 108.199219 C 213.082031 108.664062 213.546875 109.59375 213.546875 110.058594 C 218.199219 117.964844 214.941406 124.011719 211.6875 130.058594 C 209.824219 133.316406 207.5 137.035156 207.5 140.757812 C 207.035156 144.941406 208.894531 149.128906 213.082031 153.78125 L 214.941406 151.921875 C 211.222656 148.199219 209.824219 144.941406 210.289062 141.222656 C 210.757812 137.964844 212.152344 134.710938 214.011719 131.453125 C 217.734375 124.941406 221.453125 117.964844 215.871094 108.664062 C 215.40625 108.199219 214.941406 107.269531 214.941406 106.804688 C 210.757812 99.359375 206.570312 92.847656 209.359375 84.011719 C 211.222656 79.359375 215.40625 75.175781 219.59375 70.988281 C 221.917969 68.664062 224.710938 66.335938 226.570312 63.546875 L 224.246094 62.152344 C 222.382812 64.476562 220.058594 66.800781 217.734375 69.128906 C 213.546875 73.3125 208.894531 77.5 207.035156 83.082031 C 205.640625 87.269531 205.640625 91.917969 207.035156 96.570312 C 207.964844 100.757812 210.289062 104.476562 212.617188 108.199219 Z M 212.617188 108.199219 " fill-opacity="1" fill-rule="nonzero"/><g clip-path="url(#17594df93f)"><path fill="#492818" d="M 183.777344 84.011719 C 184.242188 84.476562 184.242188 85.40625 184.710938 85.871094 C 189.359375 93.78125 186.105469 99.828125 182.847656 105.871094 C 180.988281 109.128906 178.664062 112.851562 178.664062 116.570312 C 178.199219 120.757812 180.058594 124.941406 184.242188 129.59375 L 186.105469 127.734375 C 182.382812 124.011719 180.988281 120.757812 181.453125 117.035156 C 181.917969 113.78125 183.3125 110.523438 185.175781 107.269531 C 188.894531 100.757812 192.617188 93.78125 187.035156 84.476562 C 186.570312 84.011719 186.105469 83.082031 186.105469 82.617188 C 181.917969 75.175781 177.734375 68.664062 180.523438 59.824219 C 182.382812 55.175781 186.570312 50.988281 190.753906 46.800781 C 193.082031 44.476562 195.871094 42.152344 197.734375 39.359375 L 195.40625 37.5 C 193.546875 39.824219 191.222656 42.152344 188.894531 44.476562 C 184.710938 48.664062 180.058594 52.847656 178.199219 58.429688 C 176.800781 62.617188 176.800781 67.269531 178.199219 71.917969 C 179.59375 76.570312 181.453125 80.757812 183.777344 84.011719 Z M 183.777344 84.011719 " fill-opacity="1" fill-rule="nonzero"/></g></svg>