<svg xmlns="http://www.w3.org/2000/svg" xmlns:xlink="http://www.w3.org/1999/xlink" width="500" zoomAndPan="magnify" viewBox="0 0 375 374.999991" height="500" preserveAspectRatio="xMidYMid meet" version="1.0"><defs><clipPath id="c0b8ed0397"><path d="M 295 340 L 337.5 340 L 337.5 349 L 295 349 Z M 295 340 " clip-rule="nonzero"/></clipPath><clipPath id="08fa3a3875"><path d="M 37.5 54 L 178 54 L 178 213 L 37.5 213 Z M 37.5 54 " clip-rule="nonzero"/></clipPath><clipPath id="78dd12e5d7"><path d="M 81 1.167969 L 153 1.167969 L 153 73 L 81 73 Z M 81 1.167969 " clip-rule="nonzero"/></clipPath><clipPath id="d4b49f717c"><path d="M 253 362 L 295 362 L 295 374.667969 L 253 374.667969 Z M 253 362 " clip-rule="nonzero"/></clipPath><clipPath id="2ac2216065"><path d="M 295 216 L 337.5 216 L 337.5 342 L 295 342 Z M 295 216 " clip-rule="nonzero"/></clipPath></defs><g clip-path="url(#c0b8ed0397)"><path fill="#492818" d="M 297.03125 340.253906 C 296.269531 340.863281 295.835938 341.515625 295.835938 342.199219 C 295.835938 345.445312 305.167969 348.078125 316.675781 348.078125 C 328.183594 348.078125 337.511719 345.445312 337.511719 342.199219 C 337.511719 341.515625 337.078125 340.863281 336.320312 340.253906 C 333.46875 342.542969 325.761719 344.1875 316.675781 344.1875 C 307.585938 344.1875 299.878906 342.542969 297.03125 340.253906 Z M 297.03125 340.253906 " fill-opacity="1" fill-rule="nonzero"/></g><path fill="#492818" d="M 68.367188 174.773438 L 55.539062 332.050781 C 54.667969 342.746094 62.628906 352.113281 73.320312 352.984375 C 84.007812 353.855469 93.382812 345.902344 94.253906 335.210938 L 104.664062 207.554688 C 103.320312 206.875 102.066406 206.007812 100.941406 204.964844 Z M 68.367188 174.773438 " fill-opacity="1" fill-rule="nonzero"/><path fill="#492818" d="M 136.144531 216.195312 L 136.140625 216.195312 C 134.214844 216.195312 132.316406 215.855469 130.5 215.175781 C 130.476562 215.167969 130.457031 215.15625 130.433594 215.148438 L 141.023438 346.042969 L 153.539062 345.03125 C 156.371094 344.800781 158.945312 346.3125 160.226562 348.660156 C 164.996094 344.757812 167.835938 338.660156 167.296875 332.050781 L 155.96875 193.144531 L 151.308594 205.660156 C 148.960938 211.964844 142.867188 216.195312 136.144531 216.195312 Z M 136.144531 216.195312 " fill-opacity="1" fill-rule="nonzero"/><path fill="#492818" d="M 158.394531 363.265625 L 157.460938 351.71875 C 157.3125 349.863281 155.683594 348.480469 153.828125 348.628906 L 137.714844 349.933594 L 126.644531 213.097656 C 124.410156 211.484375 122.613281 209.320312 121.433594 206.742188 C 121.367188 206.601562 121.324219 206.457031 121.261719 206.316406 C 120.222656 207.046875 119.089844 207.640625 117.914062 208.109375 L 129.441406 350.601562 L 113.324219 351.90625 C 111.46875 352.058594 110.085938 353.683594 110.238281 355.539062 L 111.171875 367.085938 C 111.320312 368.945312 112.945312 370.324219 114.804688 370.175781 L 155.308594 366.898438 C 157.164062 366.75 158.546875 365.121094 158.394531 363.265625 Z M 158.394531 363.265625 " fill-opacity="1" fill-rule="nonzero"/><g clip-path="url(#08fa3a3875)"><path fill="#492818" d="M 41.835938 145.253906 L 103.394531 202.316406 C 105.816406 204.558594 108.878906 205.664062 111.933594 205.664062 C 114.886719 205.664062 117.832031 204.628906 120.179688 202.585938 C 119.738281 199.851562 119.992188 197.035156 120.984375 194.371094 L 123.386719 187.917969 C 122.71875 186.4375 121.746094 185.058594 120.480469 183.882812 L 63.503906 131.070312 C 65.09375 116.777344 67.359375 107.046875 69.792969 100.339844 L 73.425781 100.886719 C 71.835938 105.09375 70.28125 110.75 68.9375 118.382812 L 68.9375 131.179688 L 122.9375 181.234375 C 123.710938 181.949219 124.398438 182.734375 125.007812 183.566406 L 148.113281 121.527344 C 146.808594 105.710938 144.597656 95.65625 142.550781 89.371094 L 146.09375 88.59375 C 148.269531 95.394531 150.496094 105.914062 151.78125 122.035156 L 124.371094 195.628906 C 121.949219 202.132812 125.257812 209.371094 131.761719 211.792969 C 133.207031 212.328125 134.6875 212.585938 136.144531 212.585938 C 141.242188 212.585938 146.039062 209.460938 147.921875 204.402344 L 176.289062 128.230469 C 176.917969 126.546875 177.175781 124.753906 177.050781 122.960938 C 175.921875 106.910156 173.8125 93.71875 170.710938 83.195312 C 167.238281 71.417969 162.519531 62.988281 156.46875 57.792969 C 154.824219 56.378906 153.210938 55.316406 151.679688 54.515625 C 145.238281 67.164062 132.09375 75.855469 116.953125 75.855469 C 104.3125 75.855469 93.066406 69.800781 85.945312 60.445312 L 81.078125 60.445312 C 80.394531 60.445312 79.726562 60.515625 79.070312 60.625 C 76.796875 60.308594 74.414062 60.601562 72.167969 61.621094 L 71.433594 61.945312 C 61.261719 66.433594 51.300781 74.261719 44.578125 96.53125 C 41.640625 106.261719 39.316406 118.734375 37.863281 134.914062 C 37.515625 138.789062 38.984375 142.605469 41.835938 145.253906 Z M 41.835938 145.253906 " fill-opacity="1" fill-rule="nonzero"/></g><g clip-path="url(#78dd12e5d7)"><path fill="#492818" d="M 152.292969 36.902344 C 152.292969 38.0625 152.238281 39.214844 152.121094 40.367188 C 152.007812 41.519531 151.839844 42.664062 151.613281 43.796875 C 151.386719 44.933594 151.109375 46.054688 150.769531 47.164062 C 150.433594 48.269531 150.046875 49.359375 149.601562 50.429688 C 149.160156 51.496094 148.664062 52.542969 148.121094 53.5625 C 147.574219 54.585938 146.980469 55.574219 146.335938 56.539062 C 145.695312 57.5 145.003906 58.429688 144.269531 59.324219 C 143.535156 60.21875 142.761719 61.074219 141.941406 61.894531 C 141.125 62.710938 140.265625 63.488281 139.371094 64.222656 C 138.476562 64.957031 137.550781 65.644531 136.585938 66.289062 C 135.625 66.933594 134.632812 67.527344 133.613281 68.070312 C 132.589844 68.617188 131.546875 69.113281 130.476562 69.554688 C 129.40625 69.996094 128.320312 70.386719 127.210938 70.722656 C 126.105469 71.058594 124.984375 71.339844 123.847656 71.566406 C 122.710938 71.792969 121.570312 71.960938 120.417969 72.074219 C 119.265625 72.1875 118.109375 72.246094 116.953125 72.246094 C 115.796875 72.246094 114.640625 72.1875 113.488281 72.074219 C 112.335938 71.960938 111.195312 71.792969 110.058594 71.566406 C 108.921875 71.339844 107.800781 71.058594 106.695312 70.722656 C 105.585938 70.386719 104.5 69.996094 103.429688 69.554688 C 102.359375 69.113281 101.3125 68.617188 100.292969 68.070312 C 99.273438 67.527344 98.28125 66.933594 97.320312 66.289062 C 96.355469 65.644531 95.429688 64.957031 94.535156 64.222656 C 93.636719 63.488281 92.78125 62.710938 91.964844 61.894531 C 91.144531 61.074219 90.367188 60.21875 89.632812 59.324219 C 88.898438 58.429688 88.210938 57.5 87.570312 56.539062 C 86.925781 55.574219 86.332031 54.585938 85.785156 53.5625 C 85.238281 52.542969 84.746094 51.496094 84.300781 50.429688 C 83.859375 49.359375 83.46875 48.269531 83.132812 47.164062 C 82.796875 46.054688 82.515625 44.933594 82.292969 43.796875 C 82.066406 42.664062 81.894531 41.519531 81.78125 40.367188 C 81.667969 39.214844 81.613281 38.0625 81.613281 36.902344 C 81.613281 35.746094 81.667969 34.59375 81.78125 33.441406 C 81.894531 32.289062 82.066406 31.144531 82.292969 30.007812 C 82.515625 28.875 82.796875 27.753906 83.132812 26.644531 C 83.46875 25.539062 83.859375 24.449219 84.300781 23.378906 C 84.746094 22.3125 85.238281 21.265625 85.785156 20.246094 C 86.332031 19.222656 86.925781 18.234375 87.570312 17.269531 C 88.210938 16.308594 88.898438 15.378906 89.632812 14.484375 C 90.367188 13.589844 91.144531 12.734375 91.964844 11.914062 C 92.78125 11.097656 93.636719 10.320312 94.535156 9.585938 C 95.429688 8.851562 96.355469 8.164062 97.320312 7.519531 C 98.28125 6.875 99.273438 6.28125 100.292969 5.738281 C 101.3125 5.191406 102.359375 4.695312 103.429688 4.253906 C 104.5 3.8125 105.585938 3.421875 106.695312 3.085938 C 107.800781 2.75 108.921875 2.46875 110.058594 2.242188 C 111.195312 2.015625 112.335938 1.847656 113.488281 1.734375 C 114.640625 1.621094 115.796875 1.5625 116.953125 1.5625 C 118.109375 1.5625 119.265625 1.621094 120.417969 1.734375 C 121.570312 1.847656 122.710938 2.015625 123.847656 2.242188 C 124.984375 2.46875 126.105469 2.75 127.210938 3.085938 C 128.320312 3.421875 129.40625 3.8125 130.476562 4.253906 C 131.546875 4.695312 132.589844 5.191406 133.613281 5.738281 C 134.632812 6.28125 135.625 6.875 136.585938 7.519531 C 137.550781 8.164062 138.476562 8.851562 139.371094 9.585938 C 140.265625 10.320312 141.125 11.097656 141.941406 11.914062 C 142.761719 12.734375 143.535156 13.589844 144.269531 14.484375 C 145.003906 15.378906 145.695312 16.308594 146.335938 17.269531 C 146.980469 18.234375 147.574219 19.222656 148.121094 20.246094 C 148.664062 21.265625 149.160156 22.3125 149.601562 23.378906 C 150.046875 24.449219 150.433594 25.539062 150.769531 26.644531 C 151.109375 27.753906 151.386719 28.875 151.613281 30.007812 C 151.839844 31.144531 152.007812 32.289062 152.121094 33.441406 C 152.238281 34.59375 152.292969 35.746094 152.292969 36.902344 Z M 152.292969 36.902344 " fill-opacity="1" fill-rule="nonzero"/></g><path fill="#492818" d="M 217.59375 359.1875 C 217.59375 352.933594 212.519531 347.863281 206.265625 347.863281 C 200.011719 347.863281 194.9375 352.933594 194.9375 359.1875 C 194.9375 365.441406 200.011719 370.515625 206.265625 370.515625 C 212.519531 370.515625 217.59375 365.445312 217.59375 359.1875 Z M 217.59375 359.1875 " fill-opacity="1" fill-rule="nonzero"/><g clip-path="url(#d4b49f717c)"><path fill="#492818" d="M 294.714844 368.785156 C 294.714844 369.171875 294.578125 369.554688 294.3125 369.933594 C 294.046875 370.3125 293.652344 370.679688 293.125 371.035156 C 292.601562 371.390625 291.960938 371.730469 291.203125 372.050781 C 290.441406 372.375 289.578125 372.671875 288.609375 372.941406 C 287.644531 373.214844 286.589844 373.460938 285.453125 373.675781 C 284.316406 373.886719 283.113281 374.070312 281.851562 374.21875 C 280.585938 374.363281 279.285156 374.476562 277.941406 374.550781 C 276.597656 374.628906 275.246094 374.664062 273.875 374.664062 C 272.507812 374.664062 271.152344 374.628906 269.8125 374.550781 C 268.46875 374.476562 267.167969 374.363281 265.902344 374.21875 C 264.636719 374.070312 263.4375 373.886719 262.300781 373.675781 C 261.164062 373.460938 260.109375 373.214844 259.144531 372.941406 C 258.175781 372.671875 257.3125 372.375 256.550781 372.050781 C 255.792969 371.730469 255.148438 371.390625 254.625 371.035156 C 254.101562 370.679688 253.707031 370.3125 253.441406 369.933594 C 253.171875 369.554688 253.039062 369.171875 253.039062 368.785156 C 253.039062 368.398438 253.171875 368.019531 253.441406 367.640625 C 253.707031 367.261719 254.101562 366.894531 254.625 366.535156 C 255.148438 366.179688 255.792969 365.839844 256.550781 365.519531 C 257.3125 365.199219 258.175781 364.902344 259.144531 364.628906 C 260.109375 364.355469 261.164062 364.113281 262.300781 363.898438 C 263.4375 363.683594 264.636719 363.503906 265.902344 363.355469 C 267.167969 363.207031 268.46875 363.09375 269.8125 363.019531 C 271.152344 362.945312 272.507812 362.90625 273.875 362.90625 C 275.246094 362.90625 276.597656 362.945312 277.941406 363.019531 C 279.285156 363.09375 280.585938 363.207031 281.851562 363.355469 C 283.113281 363.503906 284.316406 363.683594 285.453125 363.898438 C 286.589844 364.113281 287.644531 364.355469 288.609375 364.628906 C 289.578125 364.902344 290.441406 365.199219 291.203125 365.519531 C 291.960938 365.839844 292.601562 366.179688 293.125 366.535156 C 293.652344 366.894531 294.046875 367.261719 294.3125 367.640625 C 294.578125 368.019531 294.714844 368.398438 294.714844 368.785156 Z M 294.714844 368.785156 " fill-opacity="1" fill-rule="nonzero"/></g><g clip-path="url(#2ac2216065)"><path fill="#492818" d="M 318.058594 329.550781 L 318.058594 248.019531 C 326.003906 247.316406 332.238281 240.652344 332.238281 232.523438 C 332.238281 223.929688 325.269531 216.960938 316.675781 216.960938 C 308.078125 216.960938 301.113281 223.929688 301.113281 232.523438 C 301.113281 240.652344 307.34375 247.316406 315.289062 248.019531 L 315.289062 329.550781 C 304.429688 329.753906 295.835938 332.296875 295.835938 335.410156 C 295.835938 335.914062 296.082031 336.394531 296.5 336.859375 C 298.789062 339.40625 306.941406 341.292969 316.675781 341.292969 C 326.40625 341.292969 334.558594 339.40625 336.847656 336.859375 C 337.265625 336.394531 337.511719 335.914062 337.511719 335.410156 C 337.511719 332.296875 328.917969 329.753906 318.058594 329.550781 Z M 318.058594 329.550781 " fill-opacity="1" fill-rule="nonzero"/></g></svg>