<svg width="18" height="19" viewBox="0 0 18 19" fill="none" xmlns="http://www.w3.org/2000/svg">
<path fill-rule="evenodd" clip-rule="evenodd" d="M9.9 2.1875H8.1C5.42831 2.1875 4.09247 2.1875 3.15602 2.86788C2.85358 3.08761 2.58761 3.35358 2.36788 3.65602C1.6875 4.59247 1.6875 5.92831 1.6875 8.6V10.4C1.6875 13.0716 1.6875 14.4075 2.36788 15.344C2.58761 15.6464 2.85358 15.9124 3.15602 16.1321C4.09247 16.8125 5.42831 16.8125 8.1 16.8125H9.9C12.5716 16.8125 13.9075 16.8125 14.844 16.1321C15.1464 15.9124 15.4124 15.6464 15.6321 15.344C16.3125 14.4075 16.3125 13.0716 16.3125 10.4V8.6C16.3125 5.92831 16.3125 4.59247 15.6321 3.65602C15.4124 3.35358 15.1464 3.08761 14.844 2.86788C13.9075 2.1875 12.5716 2.1875 9.9 2.1875ZM12 9.5C12 11.1568 10.6568 12.5 9 12.5C7.34314 12.5 6 11.1568 6 9.5C6 7.84314 7.34314 6.5 9 6.5C10.6568 6.5 12 7.84314 12 9.5ZM13.125 6.125C13.5392 6.125 13.875 5.78921 13.875 5.375C13.875 4.96079 13.5392 4.625 13.125 4.625C12.7108 4.625 12.375 4.96079 12.375 5.375C12.375 5.78921 12.7108 6.125 13.125 6.125Z" fill="#EBE7DC"/>
</svg>
