<svg xmlns="http://www.w3.org/2000/svg" xmlns:xlink="http://www.w3.org/1999/xlink" width="500" zoomAndPan="magnify" viewBox="0 0 375 374.999991" height="500" preserveAspectRatio="xMidYMid meet" version="1.0"><defs><clipPath id="e69b875f49"><path d="M 150 6.765625 L 225 6.765625 L 225 55 L 150 55 Z M 150 6.765625 " clip-rule="nonzero"/></clipPath><clipPath id="ef5f171805"><path d="M 54.117188 68 L 321.09375 68 L 321.09375 368.230469 L 54.117188 368.230469 Z M 54.117188 68 " clip-rule="nonzero"/></clipPath></defs><path fill="#492818" d="M 217.765625 68.414062 L 222.085938 68.414062 C 225.132812 68.414062 227.621094 65.925781 227.621094 62.878906 L 227.621094 59.800781 C 227.621094 56.722656 225.132812 54.265625 222.085938 54.265625 L 213.667969 54.265625 L 213.667969 54.121094 C 204.972656 54.828125 196.300781 54.886719 187.605469 55 C 178.933594 54.886719 170.238281 54.828125 161.566406 54.121094 L 161.566406 54.265625 L 153.152344 54.265625 C 150.074219 54.265625 147.589844 56.722656 147.589844 59.800781 L 147.589844 62.878906 C 147.589844 65.925781 150.074219 68.414062 153.152344 68.414062 L 157.445312 68.414062 C 167.496094 67.679688 177.550781 67.621094 187.605469 67.507812 C 197.65625 67.621094 207.710938 67.679688 217.765625 68.414062 " fill-opacity="1" fill-rule="nonzero"/><g clip-path="url(#e69b875f49)"><path fill="#492818" d="M 156.171875 20.265625 C 158.207031 15.066406 163.65625 12.132812 168.683594 11.367188 C 173.824219 10.378906 178.992188 10.945312 184.046875 11.398438 C 178.960938 11.566406 173.792969 11.507812 168.964844 12.695312 C 164.164062 13.769531 159.476562 16.367188 157.8125 20.96875 C 155.890625 25.402344 156.230469 30.65625 157.613281 35.371094 C 159.054688 40.144531 161.539062 44.632812 164.25 48.925781 C 161.003906 45.03125 158.066406 40.738281 156.316406 35.796875 C 154.59375 30.910156 154.140625 25.320312 156.171875 20.265625 Z M 161.566406 52.457031 L 161.566406 54.09375 C 170.238281 53.390625 178.933594 53.304688 187.605469 53.21875 C 196.300781 53.304688 204.972656 53.359375 213.667969 54.09375 L 213.667969 52.457031 L 221.832031 38.335938 C 229.933594 24.300781 219.796875 6.765625 203.585938 6.765625 L 171.621094 6.765625 C 155.410156 6.765625 145.300781 24.300781 153.40625 38.335938 L 161.566406 52.457031 " fill-opacity="1" fill-rule="nonzero"/></g><g clip-path="url(#ef5f171805)"><path fill="#492818" d="M 272.546875 209.042969 L 256.339844 274.957031 C 254.730469 281.621094 248.347656 286.789062 241.851562 286.789062 L 133.355469 286.789062 C 126.859375 286.789062 120.480469 281.621094 118.871094 274.957031 L 102.6875 209.042969 C 101.21875 203.140625 102.125 197.550781 105.117188 193.710938 C 107.375 190.832031 110.625 189.25 114.265625 189.25 L 260.96875 189.25 C 264.613281 189.25 267.859375 190.832031 270.089844 193.710938 C 273.113281 197.550781 273.988281 203.140625 272.546875 209.042969 Z M 117.457031 356.878906 C 110.171875 356.878906 103.082031 351.9375 100.542969 344.90625 C 98.566406 338.128906 97.292969 332.113281 95.628906 325.671875 C 89.359375 300.316406 83.625 274.8125 77.894531 249.34375 L 69.621094 211.050781 L 65.609375 191.847656 C 64.480469 185.378906 63.125 178.628906 63.40625 171.824219 C 63.292969 158.328125 67.585938 144.433594 76.59375 134.265625 C 85.488281 124.128906 97.605469 117.324219 110.3125 114.386719 C 98.113281 118.847656 86.789062 126.191406 79.304688 136.46875 C 71.398438 146.4375 68.152344 159.257812 68.855469 171.742188 C 69.507812 184.164062 73.375 196.789062 76.171875 209.582031 L 84.839844 247.789062 C 90.433594 273.316406 95.96875 298.816406 100.992188 324.488281 C 102.265625 330.757812 103.449219 337.589844 104.804688 343.4375 C 108.675781 356.257812 119.546875 352.8125 156.710938 355.15625 C 143.605469 355.945312 130.644531 356.339844 117.457031 356.878906 Z M 266.789062 104.277344 L 227.675781 104.277344 C 222.199219 104.277344 217.765625 99.84375 217.765625 94.363281 L 217.765625 68.414062 C 207.710938 69.144531 197.65625 69.203125 187.605469 69.289062 C 177.550781 69.203125 167.496094 69.144531 157.445312 68.414062 L 157.445312 94.363281 C 157.445312 99.84375 153.011719 104.277344 147.558594 104.277344 L 108.421875 104.277344 C 71.171875 104.277344 46.433594 143.417969 56.289062 183.941406 L 90.742188 349.59375 C 93 360.4375 102.574219 368.230469 113.671875 368.230469 L 261.5625 368.230469 C 272.660156 368.230469 282.207031 360.4375 284.464844 349.59375 L 318.917969 183.941406 C 328.773438 143.417969 304.035156 104.277344 266.789062 104.277344 " fill-opacity="1" fill-rule="nonzero"/></g><path fill="#492818" d="M 175.234375 235.84375 C 174.050781 234.628906 173.457031 232.792969 173.457031 230.253906 L 173.457031 226.609375 C 173.457031 225.140625 173.738281 223.984375 174.359375 223.109375 C 172.804688 224.179688 172.042969 225.59375 172.042969 227.429688 L 172.042969 230.761719 C 172.042969 233.332031 172.695312 235.222656 173.992188 236.550781 L 179.949219 242.535156 C 181.195312 243.75 181.785156 245.585938 181.785156 248.101562 L 181.785156 252.703125 C 181.785156 254.144531 181.417969 255.300781 180.683594 256.148438 C 182.351562 255.101562 183.199219 253.605469 183.199219 251.714844 L 183.199219 247.589844 C 183.199219 245.050781 182.550781 243.128906 181.222656 241.832031 L 175.234375 235.84375 " fill-opacity="1" fill-rule="nonzero"/><path fill="#492818" d="M 173.457031 247.535156 L 172.042969 247.535156 L 172.042969 251.09375 C 172.042969 252.902344 172.804688 254.339844 174.359375 255.414062 C 173.738281 254.539062 173.457031 253.351562 173.457031 251.910156 L 173.457031 247.535156 " fill-opacity="1" fill-rule="nonzero"/><path fill="#492818" d="M 221.605469 247.535156 L 220.21875 247.535156 L 220.21875 252.703125 C 220.21875 254.199219 219.851562 255.355469 219.121094 256.148438 C 220.785156 255.101562 221.605469 253.605469 221.605469 251.714844 L 221.605469 247.535156 " fill-opacity="1" fill-rule="nonzero"/><path fill="#492818" d="M 196.246094 238.640625 L 200.679688 256.089844 L 202.089844 256.089844 L 197.09375 236.605469 L 196.246094 238.640625 " fill-opacity="1" fill-rule="nonzero"/><path fill="#492818" d="M 190.9375 256.089844 L 192.320312 256.089844 L 192.320312 209.890625 L 190.9375 209.890625 L 190.9375 256.089844 " fill-opacity="1" fill-rule="nonzero"/><path fill="#492818" d="M 134.824219 209.890625 L 138.4375 256.089844 L 139.851562 256.089844 L 136.207031 209.890625 L 134.824219 209.890625 " fill-opacity="1" fill-rule="nonzero"/><path fill="#492818" d="M 162.667969 256.089844 L 164.082031 256.089844 L 164.082031 222.429688 L 162.667969 222.429688 L 162.667969 256.089844 " fill-opacity="1" fill-rule="nonzero"/><path fill="#492818" d="M 162.667969 215.738281 L 164.082031 215.738281 L 164.082031 209.890625 L 162.667969 209.890625 L 162.667969 215.738281 " fill-opacity="1" fill-rule="nonzero"/><path fill="#492818" d="M 145.894531 209.890625 L 149.140625 256.089844 L 150.554688 256.089844 L 147.277344 209.890625 L 145.894531 209.890625 " fill-opacity="1" fill-rule="nonzero"/><path fill="#492818" d="M 181.671875 230.988281 L 183.058594 230.988281 L 183.058594 226.808594 C 183.058594 224.886719 182.210938 223.417969 180.542969 222.34375 C 181.277344 223.222656 181.671875 224.378906 181.671875 225.820312 L 181.671875 230.988281 " fill-opacity="1" fill-rule="nonzero"/><path fill="#492818" d="M 230.867188 260.328125 L 229.453125 260.328125 L 229.453125 260.808594 C 229.453125 262.644531 230.246094 264.082031 231.769531 265.128906 C 231.175781 264.253906 230.867188 263.125 230.867188 261.65625 L 230.867188 260.328125 " fill-opacity="1" fill-rule="nonzero"/><path fill="#492818" d="M 240.808594 222.429688 L 239.421875 222.429688 L 239.421875 262.445312 C 239.421875 263.941406 239.085938 265.101562 238.378906 265.890625 C 239.988281 264.875 240.808594 263.378906 240.808594 261.457031 L 240.808594 222.429688 " fill-opacity="1" fill-rule="nonzero"/><path fill="#492818" d="M 265.628906 207.351562 L 249.421875 273.261719 C 248.574219 276.734375 245.097656 279.671875 241.851562 279.671875 L 133.355469 279.671875 C 130.109375 279.671875 126.636719 276.734375 125.789062 273.261719 L 109.605469 207.351562 C 108.703125 203.679688 109.125 200.148438 110.734375 198.117188 C 111.640625 196.957031 112.796875 196.394531 114.265625 196.394531 L 260.96875 196.394531 C 262.410156 196.394531 263.597656 196.957031 264.472656 198.117188 C 266.082031 200.148438 266.535156 203.679688 265.628906 207.351562 Z M 260.96875 192.835938 L 114.265625 192.835938 C 107.6875 192.835938 104.101562 199.894531 106.132812 208.199219 L 122.34375 274.109375 C 123.585938 279.246094 128.5 283.230469 133.355469 283.230469 L 241.851562 283.230469 C 246.710938 283.230469 251.652344 279.246094 252.894531 274.109375 L 269.074219 208.199219 C 271.136719 199.894531 267.523438 192.835938 260.96875 192.835938 " fill-opacity="1" fill-rule="nonzero"/><path fill="#492818" d="M 224.34375 239.824219 L 214.035156 239.824219 L 214.035156 253.632812 C 214.035156 255.5 214.855469 256.429688 216.492188 256.429688 C 218.101562 256.429688 218.894531 255.5 218.894531 253.632812 L 218.894531 246.265625 L 224.34375 246.265625 L 224.34375 250.585938 C 224.34375 252.589844 223.609375 254.257812 222.113281 255.640625 C 220.617188 256.996094 218.753906 257.699219 216.492188 257.699219 C 214.234375 257.699219 212.339844 256.996094 210.84375 255.640625 C 209.347656 254.257812 208.613281 252.589844 208.613281 250.585938 L 208.613281 227.9375 C 208.613281 225.933594 209.347656 224.265625 210.84375 222.882812 C 212.339844 221.527344 214.234375 220.820312 216.492188 220.820312 C 218.753906 220.820312 220.617188 221.527344 222.113281 222.882812 C 223.609375 224.265625 224.34375 225.933594 224.34375 227.9375 Z M 205.027344 228.164062 L 205.027344 243.609375 L 202.402344 233.867188 Z M 206.609375 257.335938 L 199.578125 257.335938 L 195.058594 239.628906 L 195.058594 256.089844 L 196.808594 256.089844 L 196.808594 257.335938 L 187.886719 257.335938 L 187.886719 256.089844 L 189.636719 256.089844 L 189.636719 209.890625 L 187.886719 209.890625 L 187.886719 208.621094 L 195.058594 208.621094 L 195.058594 237.226562 L 202.007812 222.429688 L 200.226562 222.429688 L 200.226562 221.160156 L 205.507812 221.160156 L 205.507812 222.429688 L 203.757812 222.429688 L 198.617188 233.554688 L 204.746094 256.089844 L 206.609375 256.089844 Z M 226.40625 221.160156 L 233.578125 221.160156 L 233.578125 252.957031 C 233.578125 254.734375 234.253906 255.613281 235.609375 255.613281 C 236.488281 255.613281 237.304688 255.214844 238.097656 254.425781 L 238.097656 222.429688 L 236.375 222.429688 L 236.375 221.160156 L 243.546875 221.160156 L 243.546875 260.328125 C 243.546875 262.332031 242.839844 264.027344 241.429688 265.382812 C 240.015625 266.765625 238.210938 267.445312 235.949219 267.445312 C 233.859375 267.445312 232.023438 266.738281 230.472656 265.355469 C 228.917969 263.96875 228.15625 262.277344 228.15625 260.328125 L 228.15625 259.085938 L 233.578125 259.085938 L 233.578125 263.378906 C 233.578125 265.242188 234.367188 266.171875 235.949219 266.171875 C 237.390625 266.171875 238.097656 265.242188 238.097656 263.378906 L 238.097656 255.667969 C 237.078125 256.570312 235.753906 256.996094 234.085938 256.996094 C 230.132812 256.996094 228.15625 254.878906 228.15625 250.585938 L 228.15625 222.429688 L 226.40625 222.429688 Z M 186.078125 237.792969 L 184.074219 235.816406 L 186.078125 235.816406 Z M 185.882812 250.585938 C 185.882812 252.617188 185.203125 254.285156 183.875 255.613281 C 182.4375 256.996094 180.601562 257.699219 178.371094 257.699219 C 176.140625 257.699219 174.304688 256.996094 172.863281 255.640625 C 171.449219 254.257812 170.714844 252.589844 170.714844 250.585938 L 170.714844 246.265625 L 176.167969 246.265625 L 176.167969 253.632812 C 176.167969 255.5 176.902344 256.429688 178.371094 256.429688 C 179.78125 256.429688 180.488281 255.5 180.488281 253.632812 L 180.488281 248.296875 C 180.488281 246.066406 179.839844 244.316406 178.566406 243.074219 L 172.863281 237.425781 C 171.449219 236.042969 170.714844 233.980469 170.714844 231.242188 L 170.714844 227.9375 C 170.714844 225.902344 171.421875 224.238281 172.804688 222.855469 C 174.191406 221.5 175.996094 220.820312 178.226562 220.820312 C 180.488281 220.820312 182.296875 221.5 183.679688 222.855469 C 185.0625 224.238281 185.738281 225.902344 185.738281 227.9375 L 185.738281 232.230469 L 180.347656 232.230469 L 180.347656 224.859375 C 180.347656 222.996094 179.640625 222.089844 178.226562 222.089844 C 176.84375 222.089844 176.167969 222.996094 176.167969 224.859375 L 176.167969 229.660156 C 176.167969 231.890625 176.789062 233.640625 178.03125 234.855469 L 183.734375 240.503906 C 185.175781 241.914062 185.882812 244.003906 185.882812 246.714844 Z M 170.351562 239.964844 L 173.117188 242.707031 L 170.351562 242.707031 Z M 168.515625 257.335938 L 159.617188 257.335938 L 159.617188 256.089844 L 161.339844 256.089844 L 161.339844 222.429688 L 159.617188 222.429688 L 159.617188 221.160156 L 166.792969 221.160156 L 166.792969 256.089844 L 168.515625 256.089844 Z M 158.347656 209.890625 L 156.597656 209.890625 L 153.320312 257.335938 L 147.757812 257.335938 L 145.132812 217.175781 L 142.617188 257.335938 L 137.054688 257.335938 L 133.414062 209.890625 L 131.691406 209.890625 L 131.691406 208.621094 L 140.726562 208.621094 L 140.726562 209.890625 L 139.003906 209.890625 L 141.574219 249.511719 L 144.226562 208.621094 L 149.792969 208.621094 L 152.503906 249.511719 L 154.847656 209.890625 L 153.125 209.890625 L 153.125 208.621094 L 158.347656 208.621094 Z M 157.78125 252.535156 L 157.246094 252.535156 L 157.78125 244.597656 Z M 161.339844 208.621094 L 166.792969 208.621094 L 166.792969 216.980469 L 161.339844 216.980469 Z M 222.847656 218.957031 C 221.011719 217.828125 218.894531 217.261719 216.492188 217.261719 C 213.613281 217.261719 211.128906 218.082031 209.09375 219.71875 L 209.09375 217.601562 L 198.617188 217.601562 L 198.617188 205.0625 L 184.328125 205.0625 L 184.328125 213.449219 L 186.078125 213.449219 L 186.078125 220.226562 C 184.015625 218.25 181.390625 217.261719 178.226562 217.261719 C 175.066406 217.261719 172.410156 218.277344 170.351562 220.253906 L 170.351562 205.0625 L 128.132812 205.0625 L 128.132812 213.449219 L 130.109375 213.449219 L 133.75 260.921875 L 172.101562 260.921875 L 172.101562 259.535156 C 173.878906 260.667969 175.96875 261.257812 178.371094 261.257812 C 180.601562 261.257812 182.605469 260.75 184.328125 259.734375 L 184.328125 260.921875 L 210.167969 260.921875 L 210.167969 259.566406 C 212.003906 260.695312 214.121094 261.257812 216.492188 261.257812 C 219.683594 261.257812 222.367188 260.242188 224.542969 258.238281 C 224.542969 258.238281 224.570312 258.210938 224.570312 258.210938 L 224.570312 260.328125 C 224.570312 263.292969 225.785156 265.945312 228.070312 268.007812 C 230.300781 269.984375 232.957031 271 235.949219 271 C 239.140625 271 241.824219 269.984375 243.914062 267.953125 C 246.003906 265.890625 247.105469 263.265625 247.105469 260.328125 L 247.105469 217.601562 L 222.847656 217.601562 L 222.847656 218.957031 " fill-opacity="1" fill-rule="nonzero"/><path fill="#492818" d="M 232.195312 255.753906 C 231.289062 254.878906 230.867188 253.632812 230.867188 252.054688 L 230.867188 222.429688 L 229.453125 222.429688 L 229.453125 251.289062 C 229.453125 253.777344 230.386719 255.246094 232.195312 255.753906 " fill-opacity="1" fill-rule="nonzero"/><path fill="#492818" d="M 216.492188 222.089844 C 214.855469 222.089844 214.035156 222.996094 214.035156 224.859375 L 214.035156 238.554688 L 218.894531 238.554688 L 218.894531 224.859375 C 218.894531 222.996094 218.101562 222.089844 216.492188 222.089844 " fill-opacity="1" fill-rule="nonzero"/><path fill="#492818" d="M 220.21875 225.820312 L 220.21875 238.554688 L 221.605469 238.554688 L 221.605469 226.808594 C 221.605469 224.886719 220.785156 223.417969 219.121094 222.34375 C 219.851562 223.136719 220.21875 224.292969 220.21875 225.820312 " fill-opacity="1" fill-rule="nonzero"/><path fill="#492818" d="M 212.230469 223.109375 C 210.703125 224.179688 209.941406 225.59375 209.941406 227.429688 L 209.941406 251.09375 C 209.941406 252.902344 210.703125 254.339844 212.230469 255.414062 C 211.636719 254.539062 211.324219 253.351562 211.324219 251.910156 L 211.324219 226.609375 C 211.324219 225.140625 211.636719 223.984375 212.230469 223.109375 " fill-opacity="1" fill-rule="nonzero"/></svg>