<svg xmlns="http://www.w3.org/2000/svg" xmlns:xlink="http://www.w3.org/1999/xlink" width="500" zoomAndPan="magnify" viewBox="0 0 375 374.999991" height="500" preserveAspectRatio="xMidYMid meet" version="1.0"><path fill="#492818" d="M 321.59375 161.003906 L 321.59375 104.453125 L 328.832031 102.542969 L 328.832031 166.328125 C 326.511719 164.417969 324.121094 162.640625 321.59375 161.003906 Z M 235.476562 77.273438 C 235.203125 66.824219 247.425781 59.722656 256.304688 64.980469 L 256.304688 44.492188 C 256.304688 38.074219 260.539062 32.542969 266.753906 30.902344 C 271.261719 29.671875 273.175781 36.777344 268.597656 37.9375 C 267.097656 38.347656 265.867188 39.167969 264.980469 40.257812 C 262.109375 41.625 264.089844 74.132812 263.542969 76.933594 C 263.679688 80.894531 262.042969 84.582031 259.449219 87.246094 C 251.253906 95.988281 235.066406 89.5 235.476562 77.273438 Z M 242.785156 77.273438 C 242.648438 86.015625 256.375 86.152344 256.375 77.410156 C 256.648438 68.53125 242.578125 68.328125 242.785156 77.273438 Z M 159.054688 47.363281 C 161.515625 47.363281 163.835938 47.976562 165.886719 49.136719 C 166.636719 42.71875 163.699219 24.960938 168.890625 19.90625 C 172.371094 14.035156 189.308594 12.191406 195.046875 10.003906 C 203.582031 7.546875 212.871094 14.71875 212.597656 23.664062 L 212.597656 50.503906 C 212.804688 58.355469 206.382812 64.914062 198.53125 64.914062 C 175.105469 63.546875 184.257812 28.445312 205.359375 38.550781 C 204.609375 31.925781 208.910156 14.855469 196.890625 17.039062 L 178.246094 22.023438 C 175.171875 22.84375 173.191406 25.4375 173.191406 28.582031 L 173.191406 61.019531 C 173.328125 64.980469 171.691406 68.667969 169.09375 71.332031 C 148.402344 88.269531 132.488281 50.09375 159.054688 47.363281 Z M 205.289062 50.980469 C 205.632812 42.101562 191.5625 41.898438 191.699219 50.84375 C 191.5625 59.585938 205.289062 59.722656 205.289062 50.980469 Z M 152.292969 61.429688 C 152.15625 70.171875 165.886719 70.308594 165.886719 61.566406 C 166.160156 52.6875 152.089844 52.484375 152.292969 61.429688 Z M 161.992188 238.652344 C 199.210938 286.730469 160.421875 361.101562 99.640625 359.191406 C 38.789062 361.101562 0 286.800781 37.21875 238.652344 C 41.386719 232.914062 40.703125 224.378906 39.953125 214.613281 C 38.382812 195.082031 36.332031 169.878906 79.355469 164.28125 L 79.355469 211.675781 C 57.367188 229.023438 71.160156 267.8125 99.640625 266.855469 C 128.117188 267.882812 141.914062 229.089844 119.921875 211.675781 L 119.921875 164.28125 C 164.65625 170.085938 161.992188 196.855469 160.011719 216.386719 C 159.054688 225.609375 158.234375 233.597656 161.992188 238.652344 Z M 132.695312 298.410156 C 132.695312 296.429688 131.054688 294.789062 129.074219 294.789062 L 70.070312 294.789062 C 68.089844 294.789062 66.449219 296.429688 66.449219 298.410156 C 66.449219 300.390625 68.089844 302.027344 70.070312 302.027344 L 129.074219 302.027344 C 131.054688 302.097656 132.695312 300.457031 132.695312 298.410156 Z M 75.53125 235.441406 C 76.078125 267.0625 123.132812 267.0625 123.679688 235.441406 C 123.066406 203.820312 76.078125 203.820312 75.53125 235.441406 Z M 112.617188 206.964844 C 112.617188 177.527344 112.617188 102.066406 112.617188 71.742188 C 106.128906 71.742188 93.015625 71.742188 86.527344 71.742188 C 86.527344 102.40625 86.527344 177.1875 86.527344 206.964844 C 94.382812 203.207031 104.761719 203.207031 112.617188 206.964844 Z M 82.910156 64.503906 C 83.726562 64.160156 119.515625 65.527344 118.695312 63.480469 C 119.445312 62.726562 119.921875 61.636719 120.058594 60.472656 C 120.332031 46.882812 124.910156 30.902344 122.585938 17.925781 C 112.890625 14.308594 90.078125 16.902344 79.289062 16.765625 C 77.582031 16.902344 75.875 18.199219 75.875 19.976562 C 75.53125 30.082031 78.332031 49.410156 79.289062 60.472656 C 79.355469 62.589844 80.722656 64.503906 82.910156 64.503906 Z M 158.578125 131.773438 L 141.640625 131.773438 L 141.640625 161.890625 C 158.644531 168.308594 165.203125 179.101562 167.320312 190.710938 C 182.34375 168.652344 205.222656 152.464844 231.171875 145.703125 L 231.171875 131.773438 L 214.238281 131.773438 C 213.691406 134.980469 216.21875 144.886719 210.617188 144.75 C 205.015625 144.886719 207.542969 134.980469 206.996094 131.773438 L 190.0625 131.773438 C 189.515625 134.980469 192.042969 144.886719 186.441406 144.75 C 180.839844 144.886719 183.300781 134.980469 182.820312 131.773438 L 165.816406 131.773438 C 165.269531 134.980469 167.796875 144.886719 162.195312 144.75 C 156.527344 144.886719 159.054688 134.914062 158.578125 131.773438 Z M 309.4375 336.378906 C 301.175781 336.378906 294.617188 343.414062 295.027344 351.675781 C 253.164062 367.453125 202.898438 352.566406 176.46875 316.984375 C 188.695312 290.964844 185.144531 257.296875 167.730469 234.347656 C 164.246094 228.476562 168.480469 211.949219 168.140625 203.003906 C 177.085938 186.886719 190.265625 173.363281 206.109375 163.9375 C 240.667969 142.425781 290.109375 145.363281 321.59375 169.878906 L 321.59375 336.378906 Z M 220.109375 214.339844 C 169.574219 267.402344 245.582031 343.484375 298.714844 292.945312 C 349.253906 239.8125 273.242188 163.800781 220.109375 214.339844 Z M 259.378906 205.324219 C 195.660156 206.964844 195.660156 300.390625 259.378906 301.960938 C 323.164062 300.320312 323.164062 206.894531 259.378906 205.324219 Z M 328.902344 175.820312 L 328.902344 331.460938 C 375 293.011719 374.453125 213.65625 328.902344 175.820312 Z M 340.988281 343.6875 L 325.214844 343.6875 C 318.382812 344.574219 302.539062 340.066406 302.335938 350.789062 C 302.675781 351.882812 301.378906 358.097656 303.566406 357.960938 L 347 357.960938 C 347.410156 357.960938 347.683594 357.753906 347.957031 357.484375 C 348.84375 351.882812 348.503906 343.824219 340.988281 343.6875 Z M 288.949219 105.683594 L 359.632812 86.765625 C 364.277344 85.675781 365.164062 78.84375 360.929688 76.660156 C 354.445312 73.929688 338.191406 83.832031 331.019531 81.167969 C 326.578125 80.621094 323.78125 74.816406 318.929688 76.25 C 316.882812 76.796875 315.3125 78.367188 314.695312 80.347656 C 313.261719 85.195312 309.507812 88.816406 304.589844 90.113281 C 301.925781 91.410156 283.761719 94.210938 282.734375 97.625 C 280.277344 101.585938 284.375 107.050781 288.949219 105.683594 Z M 136.519531 124.535156 L 162.128906 124.535156 C 183.710938 124.535156 213.144531 124.535156 234.726562 124.535156 C 235.542969 124.535156 237.320312 124.738281 237.25 123.441406 C 236.910156 121.597656 238.207031 112.648438 236.160156 113.195312 L 136.519531 113.195312 C 135.902344 113.195312 135.425781 113.675781 135.425781 114.289062 C 135.769531 116.132812 134.539062 125.078125 136.519531 124.535156 Z M 136.519531 124.535156 " fill-opacity="1" fill-rule="evenodd"/></svg>