<svg xmlns="http://www.w3.org/2000/svg" xmlns:xlink="http://www.w3.org/1999/xlink" width="500" zoomAndPan="magnify" viewBox="0 0 375 374.999991" height="500" preserveAspectRatio="xMidYMid meet" version="1.0"><defs><clipPath id="13a740a5db"><path d="M 2 76 L 372 76 L 372 337.5 L 2 337.5 Z M 2 76 " clip-rule="nonzero"/></clipPath><clipPath id="c19cd17dee"><path d="M 13 92 L 86 92 L 86 152 L 13 152 Z M 13 92 " clip-rule="nonzero"/></clipPath><clipPath id="c111bf7adf"><path d="M 11.445312 96.398438 L 82.5 91.125 L 86.71875 147.96875 L 15.664062 153.242188 Z M 11.445312 96.398438 " clip-rule="nonzero"/></clipPath><clipPath id="3934cdc98c"><path d="M 11.445312 96.398438 L 82.5 91.125 L 86.71875 147.96875 L 15.664062 153.242188 Z M 11.445312 96.398438 " clip-rule="nonzero"/></clipPath><clipPath id="3cb550ca1f"><path d="M 206 27 L 271 27 L 271 75 L 206 75 Z M 206 27 " clip-rule="nonzero"/></clipPath><clipPath id="69ede80a49"><path d="M 210.953125 12.71875 L 279.757812 31.222656 L 264.953125 86.269531 L 196.148438 67.765625 Z M 210.953125 12.71875 " clip-rule="nonzero"/></clipPath><clipPath id="7355a17580"><path d="M 210.953125 12.71875 L 279.757812 31.222656 L 264.953125 86.269531 L 196.148438 67.765625 Z M 210.953125 12.71875 " clip-rule="nonzero"/></clipPath></defs><g clip-path="url(#13a740a5db)"><path fill="#492818" d="M 364.003906 318.792969 C 365.335938 308.292969 368.734375 280.121094 367.332031 270.285156 C 367.257812 269.695312 367.480469 269.175781 367.847656 268.804688 C 369.84375 267.03125 374.945312 261.339844 369.179688 252.761719 C 368.957031 252.390625 368.882812 252.019531 368.882812 251.578125 C 369.03125 250.394531 369.105469 247.878906 367.625 247.066406 C 366.960938 246.695312 366.589844 246.03125 366.664062 245.292969 C 367.035156 242.703125 367.332031 237.453125 363.929688 235.828125 C 363.339844 235.53125 362.96875 234.941406 362.96875 234.347656 C 362.96875 232.277344 362.230469 227.472656 356.089844 222.148438 C 355.871094 221.925781 355.722656 221.703125 355.648438 221.480469 C 353.355469 215.125 324.589844 136.667969 276.972656 136.964844 C 276.601562 136.964844 276.230469 136.816406 275.9375 136.59375 L 270.980469 132.675781 C 270.464844 132.230469 270.242188 131.566406 270.390625 130.902344 C 271.648438 126.09375 276.453125 106.128906 269.875 94.742188 C 269.28125 93.707031 268.765625 92.671875 268.320312 91.5625 C 266.839844 87.273438 261.074219 75.589844 242.957031 77.589844 C 242.660156 77.589844 242.367188 77.589844 242.070312 77.441406 C 240.664062 76.773438 235.859375 75 230.683594 79.730469 C 229.796875 80.546875 228.835938 81.136719 227.726562 81.507812 C 223.660156 82.839844 213.972656 86.3125 213.160156 89.34375 C 212.566406 91.5625 213.453125 94.375 214.339844 96.222656 C 215.082031 97.773438 215.375 99.476562 215.230469 101.175781 C 215.007812 105.613281 214.933594 114.339844 217.226562 119.808594 C 217.300781 119.957031 217.375 120.179688 217.375 120.328125 C 217.445312 122.175781 218.113281 132.75 220.625 137.335938 C 221.070312 138.222656 220.773438 139.332031 219.886719 139.699219 C 213.085938 142.878906 190.308594 154.195312 188.535156 164.324219 L 187.574219 171.421875 C 187.5 171.941406 187.203125 172.382812 186.761719 172.679688 C 184.765625 173.863281 179.367188 177.78125 184.320312 185.101562 C 184.910156 185.914062 184.617188 187.023438 183.730469 187.542969 C 181.730469 188.652344 179.070312 191.089844 180.695312 195.378906 C 180.84375 195.75 180.84375 196.195312 180.695312 196.5625 C 180.03125 198.117188 178.480469 202.40625 178.921875 206.398438 C 179.367188 210.09375 179.292969 213.867188 178.480469 217.488281 C 176.777344 224.957031 174.78125 236.125 176.480469 239.96875 C 176.554688 240.117188 176.703125 240.265625 176.777344 240.410156 C 177.886719 241.59375 176.925781 243.445312 175.375 243.296875 C 170.9375 242.777344 164.726562 243.148438 159.917969 248.398438 C 152.007812 256.902344 153.632812 268.4375 153.855469 269.621094 C 153.855469 269.695312 153.855469 269.769531 153.929688 269.839844 C 154.300781 271.023438 158.292969 283.59375 170.34375 293.503906 C 170.417969 293.578125 170.417969 293.578125 170.492188 293.652344 L 173.671875 297.125 C 174.78125 298.382812 173.671875 300.230469 172.046875 299.9375 C 169.382812 299.417969 167.3125 300.527344 168.273438 306.074219 C 168.273438 306.148438 168.273438 306.148438 168.273438 306.222656 L 170.714844 316.648438 C 170.789062 316.871094 170.863281 317.164062 171.085938 317.3125 L 172.195312 318.644531 L 147.644531 318.644531 L 147.644531 304.300781 C 152.375 294.539062 144.980469 286.699219 144.980469 286.699219 L 140.546875 249.507812 L 127.605469 203.808594 C 124.425781 194.050781 113.777344 193.605469 113.777344 193.605469 L 112.816406 190.277344 L 114.738281 189.613281 L 113.628906 183.476562 C 120.582031 181.773438 114.296875 177.929688 114.296875 177.929688 C 114.296875 177.929688 105.792969 178.078125 112.226562 166.765625 C 118.660156 155.449219 99.804688 145.394531 99.804688 145.394531 C 80.132812 132.378906 67.339844 145.46875 67.339844 145.46875 C 59.945312 144.804688 58.394531 150.496094 58.394531 150.496094 C 52.847656 152.050781 51.445312 160.40625 51.445312 160.40625 C 43.53125 168.242188 56.621094 190.945312 56.621094 190.945312 L 56.621094 193.308594 L 54.917969 193.679688 C 52.847656 191.832031 48.484375 196.859375 48.484375 196.859375 L 39.910156 196.859375 L 39.910156 200.335938 C 32.21875 201.296875 30.589844 211.054688 30.589844 211.054688 C 23.492188 213.273438 24.160156 242.554688 24.160156 242.554688 L 20.980469 257.34375 C 20.980469 257.34375 24.304688 260.671875 21.644531 261.929688 C 18.980469 263.1875 15.507812 286.847656 15.507812 286.847656 C 0.0546875 296.460938 12.84375 311.101562 12.84375 311.101562 L 12.84375 318.644531 L 11.589844 318.644531 C 6.339844 318.644531 2.125 322.859375 2.125 328.109375 C 2.125 333.359375 6.339844 337.5 11.589844 337.5 L 362.375 337.5 C 367.625 337.5 371.839844 333.285156 371.839844 328.035156 C 371.765625 323.449219 368.441406 319.605469 364.003906 318.792969 Z M 322.226562 301.5625 C 321.410156 297.347656 320.671875 291.949219 322.375 289.585938 C 324 287.21875 332.875 253.054688 316.015625 240.484375 C 315.570312 240.191406 315.273438 239.671875 315.273438 239.082031 L 315.273438 238.265625 C 315.273438 237.824219 315.496094 237.378906 315.792969 237.011719 C 316.753906 236.125 318.378906 233.980469 316.015625 231.464844 C 315.71875 231.167969 315.570312 230.800781 315.570312 230.355469 L 315.496094 228.875 C 315.496094 228.433594 315.644531 228.0625 315.867188 227.695312 C 316.089844 227.472656 316.308594 227.101562 316.53125 226.730469 C 317.269531 225.402344 319.265625 225.550781 319.636719 227.027344 C 320.007812 228.210938 320.15625 229.691406 320.007812 231.390625 C 320.007812 231.539062 320.007812 231.613281 320.007812 231.761719 C 320.304688 233.832031 323.335938 252.6875 338.125 270.433594 C 340.488281 273.242188 341.894531 276.71875 342.042969 280.414062 L 343.964844 317.980469 C 343.964844 318.199219 343.964844 318.421875 343.890625 318.644531 L 317.863281 318.644531 L 319.488281 308.515625 C 319.5625 308.070312 319.785156 307.699219 320.082031 307.480469 C 321.042969 306.738281 322.890625 304.742188 322.226562 301.5625 Z M 322.226562 301.5625 " fill-opacity="1" fill-rule="nonzero"/></g><g clip-path="url(#c19cd17dee)"><g clip-path="url(#c111bf7adf)"><g clip-path="url(#3934cdc98c)"><path fill="#492818" d="M 63.578125 113.183594 L 69.898438 94.148438 C 70.605469 92.027344 73.613281 92.074219 74.253906 94.21875 L 85.140625 130.988281 C 85.425781 131.957031 85.050781 133.003906 84.195312 133.550781 C 78.707031 137.058594 57.933594 149.324219 31.570312 151.929688 C 30.601562 152.03125 29.667969 151.476562 29.261719 150.601562 L 13.617188 115.390625 C 12.703125 113.378906 14.894531 111.375 16.816406 112.464844 L 35.316406 122.988281 C 36.660156 123.75 38.359375 122.972656 38.671875 121.464844 L 42.554688 102.4375 C 42.921875 100.683594 45.066406 100.011719 46.363281 101.246094 L 59.8125 114.128906 C 61.058594 115.269531 63.058594 114.765625 63.578125 113.183594 Z M 63.578125 113.183594 " fill-opacity="1" fill-rule="nonzero"/></g></g></g><g clip-path="url(#3cb550ca1f)"><g clip-path="url(#69ede80a49)"><g clip-path="url(#7355a17580)"><path fill="#492818" d="M 254.609375 45.792969 L 266.867188 29.914062 C 268.234375 28.144531 271.054688 29.183594 270.949219 31.421875 L 269.074219 69.71875 C 269.023438 70.730469 268.324219 71.59375 267.339844 71.828125 C 260.996094 73.324219 237.339844 78.035156 211.59375 71.785156 C 210.648438 71.558594 209.949219 70.726562 209.855469 69.765625 L 206.726562 31.363281 C 206.53125 29.160156 209.257812 27.992188 210.710938 29.65625 L 224.695312 45.703125 C 225.710938 46.867188 227.570312 46.695312 228.367188 45.375 L 238.320312 28.699219 C 239.246094 27.164062 241.492188 27.242188 242.304688 28.835938 L 250.742188 45.4375 C 251.539062 46.925781 253.597656 47.113281 254.609375 45.792969 Z M 254.609375 45.792969 " fill-opacity="1" fill-rule="nonzero"/></g></g></g></svg>