<svg width="54" height="60" viewBox="0 0 54 60" fill="none" xmlns="http://www.w3.org/2000/svg">
<path d="M52.35 28.8625H41.6568C41.0356 28.8625 40.53 29.3671 40.53 29.9872V35.4728C40.53 38.8416 43.1892 41.6022 46.5229 41.7741V46.814C46.2047 51.8446 42.0047 55.8405 36.885 55.8405C31.5589 55.8405 27.2257 51.5162 27.2257 46.2011H27.2249V41.7756C31.5143 41.6245 34.9578 38.0976 34.9578 33.7809V26.6076C34.9578 25.9372 34.4112 25.3917 33.7394 25.3917H27.2249V14.3317C28.4993 14.1042 29.4704 12.9924 29.4704 11.6562C29.4704 10.3201 28.4993 9.20831 27.2249 8.98079V5.468H28.2736C28.6946 5.468 29.055 5.16788 29.1305 4.75441L29.8102 1.02449C29.8564 0.770201 29.7877 0.510581 29.6218 0.312103C29.4557 0.113759 29.2121 0 28.9531 0H24.6858C24.4268 0 24.1831 0.113758 24.0171 0.312236C23.8511 0.510714 23.7826 0.770334 23.8288 1.02476L24.5084 4.75428C24.5835 5.16788 24.9439 5.46826 25.3652 5.46826H26.2637V8.98119C24.9893 9.20871 24.0182 10.3204 24.0182 11.6566C24.0182 12.9928 24.9893 14.1046 26.2637 14.3321V25.3921H19.7507C19.0789 25.3921 18.5323 25.9376 18.5323 26.608V33.7813C18.5323 38.0975 21.975 41.6241 26.2636 41.7759V46.2323C26.2467 51.5333 21.9208 55.8409 16.6049 55.8409C11.2787 55.8409 6.94555 51.5166 6.94555 46.2015V41.7791C10.3562 41.6917 13.1044 38.8977 13.1044 35.4733V29.9877C13.1044 29.3677 12.5989 28.8631 11.9775 28.8631H1.28448C0.66311 28.8631 0.157471 29.3677 0.157471 29.9877V35.4733C0.157471 38.7859 2.72918 41.5085 5.9846 41.762V46.8544H6.00676C6.34608 52.3954 10.9688 56.8001 16.605 56.8001C20.8889 56.8001 24.5859 54.2545 26.2637 50.6007V54.6042C24.9893 54.8317 24.0182 55.9436 24.0182 57.2797C24.0182 58.7797 25.2411 60 26.7442 60C28.2474 60 29.4703 58.7797 29.4703 57.2797C29.4703 55.9436 28.4992 54.8317 27.2248 54.6042V50.5972C28.9017 54.2528 32.5998 56.8001 36.8849 56.8001C42.5213 56.8001 47.144 52.3954 47.4832 46.8544H47.4837V46.8474C47.4968 46.6336 47.5053 46.4187 47.5053 46.2015H47.4837V41.7747C50.8176 41.6027 53.4768 38.8423 53.4768 35.4733V29.9877C53.477 29.3671 52.9714 28.8625 52.35 28.8625ZM6.48063 40.8237C3.52408 40.8237 1.11869 38.4233 1.11869 35.4728V29.9872C1.11869 29.8958 1.19304 29.8216 1.28461 29.8216H11.9778C12.0692 29.8216 12.1436 29.896 12.1436 29.9872V35.4728C12.1436 38.4233 9.73818 40.8237 6.78164 40.8237H6.48063ZM25.4406 4.50891L24.7938 0.959088H28.8453L28.1985 4.50891H25.4406ZM24.9793 11.6562C24.9793 10.685 25.7711 9.89499 26.7444 9.89499C27.7175 9.89499 28.5093 10.685 28.5093 11.6562C28.5093 12.6275 27.7175 13.4175 26.7444 13.4175C25.7713 13.4176 24.9793 12.6275 24.9793 11.6562ZM28.5093 57.279C28.5093 58.2501 27.7175 59.0402 26.7444 59.0402C25.7711 59.0402 24.9793 58.2501 24.9793 57.279C24.9793 56.3079 25.7711 55.5177 26.7444 55.5177C27.7175 55.5177 28.5093 56.3079 28.5093 57.279ZM26.9391 40.8237H26.5511C22.6595 40.8237 19.4936 37.6643 19.4936 33.7809V26.6076C19.4936 26.466 19.6091 26.3508 19.751 26.3508H33.7394C33.8812 26.3508 33.9967 26.466 33.9967 26.6076V33.7809C33.9966 37.6643 30.8306 40.8237 26.9391 40.8237ZM52.5158 35.4728C52.5158 38.4233 50.1104 40.8237 47.1537 40.8237H46.853C43.8965 40.8237 41.4909 38.4233 41.4909 35.4728V29.9872C41.4909 29.8958 41.5654 29.8216 41.6567 29.8216H52.3499C52.4413 29.8216 52.5157 29.896 52.5157 29.9872L52.5158 35.4728Z" fill="#FDD17C"/>
</svg>
